<svg width="81" height="80" viewBox="0 0 81 80" fill="none" xmlns="http://www.w3.org/2000/svg">
<path d="M52.5201 49.5683C52.5201 57.0635 45.5003 56.8903 44.758 56.8903H30.4622V42.4531H44.758C52.2798 42.4531 52.5201 48.0908 52.5201 49.5683ZM43.657 36.6439C43.7754 36.6439 50.4506 36.8206 50.4506 30.2268C50.4506 27.4839 49.8302 23.8874 43.657 23.8874H30.4622V36.6439H43.657ZM80.0373 13.2923V66.0751C80.027 69.5719 78.6334 72.9225 76.1608 75.3951C73.6881 77.8678 70.3375 79.2614 66.8407 79.2717H14.0579C10.5611 79.2614 7.21047 77.8678 4.73785 75.3951C2.26523 72.9225 0.871585 69.5719 0.861328 66.0751L0.861328 13.2923C0.871585 9.79549 2.26523 6.44484 4.73785 3.97222C7.21047 1.4996 10.5611 0.10596 14.0579 0.0957031H66.8407C70.3375 0.10596 73.6881 1.4996 76.1608 3.97222C78.6334 6.44484 80.027 9.79549 80.0373 13.2923ZM60.6056 50.6163C60.6056 46.8042 59.4303 40.3146 51.9369 38.7134V38.5844C55.9858 36.856 58.5361 33.5917 58.5361 28.751C58.5361 27.5139 58.8895 17.3023 44.8217 17.3023H22.3767V63.4877C45.039 63.4877 47.0962 63.7846 51.2901 62.4786C53.8014 61.6974 60.6056 59.3009 60.6056 50.6163Z" fill="#66A5FF"/>
</svg>
