<svg width="86" height="86" viewBox="0 0 86 86" fill="none" xmlns="http://www.w3.org/2000/svg">
<g clip-path="url(#clip0_8034_36)">
<g clip-path="url(#clip1_8034_36)">
<path d="M18.8054 17.9522C18.8054 14.5042 20.1752 11.1974 22.6134 8.75926C25.0515 6.32113 28.3583 4.95142 31.8063 4.95142H44.8072V30.9531H31.8063C28.3583 30.9531 25.0515 29.5834 22.6134 27.1452C20.1752 24.7071 18.8054 21.4003 18.8054 17.9522Z" stroke="#66A5FF" stroke-width="2.62202" stroke-linecap="round" stroke-linejoin="round"/>
<path d="M44.8071 4.95142H57.808C59.5152 4.95142 61.2059 5.28769 62.7831 5.94104C64.3605 6.5944 65.7937 7.55202 67.0009 8.75926C68.2082 9.9665 69.1658 11.3997 69.8192 12.977C70.4725 14.5544 70.8087 16.2449 70.8087 17.9522C70.8087 19.6596 70.4725 21.3501 69.8192 22.9274C69.1658 24.5048 68.2082 25.938 67.0009 27.1452C65.7937 28.3525 64.3605 29.31 62.7831 29.9634C61.2059 30.6168 59.5152 30.9531 57.808 30.9531H44.8071V4.95142Z" stroke="#66A5FF" stroke-width="2.62202" stroke-linecap="round" stroke-linejoin="round"/>
<path d="M44.8071 43.954C44.8071 42.2467 45.1434 40.5561 45.7968 38.9787C46.4501 37.4014 47.4078 35.9683 48.6149 34.7609C49.8223 33.5538 51.2555 32.5961 52.8327 31.9428C54.4101 31.2894 56.1007 30.9531 57.808 30.9531C59.5152 30.9531 61.2059 31.2894 62.7831 31.9428C64.3605 32.5961 65.7937 33.5538 67.0009 34.7609C68.2082 35.9683 69.1658 37.4014 69.8192 38.9787C70.4725 40.5561 70.8087 42.2467 70.8087 43.954C70.8087 45.6612 70.4725 47.3519 69.8192 48.9291C69.1658 50.5065 68.2082 51.9397 67.0009 53.1469C65.7937 54.3542 64.3605 55.3118 62.7831 55.9652C61.2059 56.6185 59.5152 56.9547 57.808 56.9547C56.1007 56.9547 54.4101 56.6185 52.8327 55.9652C51.2555 55.3118 49.8223 54.3542 48.6149 53.1469C47.4078 51.9397 46.4501 50.5065 45.7968 48.9291C45.1434 47.3519 44.8071 45.6612 44.8071 43.954Z" stroke="#66A5FF" stroke-width="2.62202" stroke-linecap="round" stroke-linejoin="round"/>
<path d="M18.8054 69.9556C18.8054 66.5076 20.1752 63.2007 22.6134 60.7627C25.0515 58.3246 28.3583 56.9548 31.8063 56.9548H44.8072V69.9556C44.8072 73.4037 43.4374 76.7104 40.9993 79.1486C38.5611 81.5867 35.2544 82.9564 31.8063 82.9564C28.3583 82.9564 25.0515 81.5867 22.6134 79.1486C20.1752 76.7104 18.8054 73.4037 18.8054 69.9556Z" stroke="#66A5FF" stroke-width="2.62202" stroke-linecap="round" stroke-linejoin="round"/>
<path d="M18.8054 43.954C18.8054 40.5059 20.1752 37.1992 22.6134 34.7609C25.0515 32.3229 28.3583 30.9531 31.8063 30.9531H44.8072V56.9547H31.8063C28.3583 56.9547 25.0515 55.585 22.6134 53.1469C20.1752 50.7088 18.8054 47.4019 18.8054 43.954Z" stroke="#66A5FF" stroke-width="2.62202" stroke-linecap="round" stroke-linejoin="round"/>
</g>
</g>
<defs>
<clipPath id="clip0_8034_36">
<rect width="85.2155" height="85.1208" fill="white" transform="translate(0.232422 0.144531)"/>
</clipPath>
<clipPath id="clip1_8034_36">
<rect width="85.2155" height="85.2155" fill="white" transform="translate(0.232422 0.144531)"/>
</clipPath>
</defs>
</svg>
