<svg width="81" height="81" viewBox="0 0 81 81" fill="none" xmlns="http://www.w3.org/2000/svg">
<path d="M79.0598 37.1299L44.1403 1.95407C43.1736 0.981416 41.863 0.435059 40.4965 0.435059C39.13 0.435059 37.8195 0.981416 36.8528 1.95407L29.5921 9.26078L38.7921 18.5259C43.6242 16.8822 48.1992 21.5417 46.5403 26.3811L55.4081 35.3118C61.5206 33.1897 66.333 40.8867 61.742 45.5066C57.0116 50.2705 49.2045 44.9905 51.742 38.7916L43.4653 30.467V52.3799C47.9831 54.6351 47.4403 59.9061 45.0867 62.2709C43.9368 63.4283 42.3776 64.0784 40.7519 64.0784C39.1262 64.0784 37.567 63.4283 36.4171 62.2709C33.2796 59.1058 34.4403 53.8348 38.426 52.2001V30.0803C34.7117 28.5499 34.0332 24.5522 35.0974 21.9877L26.0278 12.8431L2.07791 36.9662C1.11166 37.9395 0.568848 39.2595 0.568848 40.6358C0.568848 42.0121 1.11166 43.332 2.07791 44.3053L37.0081 79.4811C37.9745 80.4537 39.2848 81 40.651 81C42.0172 81 43.3275 80.4537 44.2938 79.4811L79.0598 44.469C80.026 43.4957 80.5688 42.1757 80.5688 40.7994C80.5688 39.4231 80.026 38.1032 79.0598 37.1299Z" fill="#66A5FF"/>
</svg>
