<svg width="274" height="61" viewBox="0 0 274 61" fill="none" xmlns="http://www.w3.org/2000/svg">
<path d="M15.3647 37.9604L17.9688 34.7062L9.5855 27.9999L17.9688 21.2937L15.3647 18.0395L4.948 26.3729C4.70393 26.568 4.50689 26.8156 4.37148 27.0973C4.23608 27.3789 4.16577 27.6874 4.16577 27.9999C4.16577 28.3125 4.23608 28.621 4.37148 28.9026C4.50689 29.1843 4.70393 29.4319 4.948 29.627L15.3647 37.9604ZM34.6355 18.0395L32.0313 21.2937L40.4147 27.9999L32.0313 34.7062L34.6355 37.9604L45.0522 29.627C45.2962 29.4319 45.4933 29.1843 45.6287 28.9026C45.7641 28.621 45.8344 28.3125 45.8344 27.9999C45.8344 27.6874 45.7641 27.3789 45.6287 27.0973C45.4933 26.8156 45.2962 26.568 45.0522 26.3729L34.6355 18.0395ZM31.2001 9.69994L22.8668 47.1999L18.798 46.2958L27.1313 8.79578L31.2001 9.69994Z" fill="#408EFF"/>
<path d="M60.8866 40V11.5409H70.6846C72.9343 11.5409 74.7773 11.9203 76.2138 12.6792C77.6775 13.4381 78.7616 14.4681 79.4663 15.7691C80.171 17.043 80.5234 18.4659 80.5234 20.038C80.5234 21.7997 80.0491 23.3988 79.1004 24.8353C78.1789 26.2719 76.7288 27.3018 74.7502 27.9252L80.808 40H75.8073L70.2781 28.535H65.1961V40H60.8866ZM65.1961 25.2826H70.4407C72.3922 25.2826 73.8151 24.8082 74.7096 23.8596C75.6311 22.911 76.0919 21.6777 76.0919 20.1599C76.0919 18.6421 75.6447 17.436 74.7502 16.5415C73.8558 15.62 72.4057 15.1592 70.4 15.1592H65.1961V25.2826ZM93.6603 40.4879C91.7359 40.4879 90.0013 40.0542 88.4564 39.1869C86.9385 38.2925 85.7324 37.0592 84.838 35.4872C83.9435 33.8881 83.4963 32.0314 83.4963 29.9173C83.4963 27.8032 83.9435 25.9602 84.838 24.3881C85.7595 22.789 86.9927 21.5558 88.5377 20.6884C90.0826 19.794 91.8037 19.3468 93.701 19.3468C95.6253 19.3468 97.3464 19.794 98.8643 20.6884C100.409 21.5558 101.629 22.789 102.523 24.3881C103.445 25.9602 103.906 27.8032 103.906 29.9173C103.906 32.0314 103.445 33.8881 102.523 35.4872C101.629 37.0592 100.409 38.2925 98.8643 39.1869C97.3193 40.0542 95.5847 40.4879 93.6603 40.4879ZM93.6603 36.7882C94.6903 36.7882 95.6389 36.5307 96.5062 36.0157C97.4006 35.5007 98.1189 34.7418 98.661 33.739C99.2031 32.709 99.4741 31.4352 99.4741 29.9173C99.4741 28.3995 99.2031 27.1392 98.661 26.1363C98.146 25.1064 97.4413 24.3339 96.5469 23.819C95.6796 23.304 94.7309 23.0465 93.701 23.0465C92.671 23.0465 91.7088 23.304 90.8144 23.819C89.9471 24.3339 89.2424 25.1064 88.7003 26.1363C88.1582 27.1392 87.8872 28.3995 87.8872 29.9173C87.8872 31.4352 88.1582 32.709 88.7003 33.739C89.2424 34.7418 89.9471 35.5007 90.8144 36.0157C91.6817 36.5307 92.6304 36.7882 93.6603 36.7882ZM118.12 40.4879C116.142 40.4879 114.366 40.0407 112.794 39.1462C111.249 38.2518 110.03 37.0186 109.135 35.4465C108.268 33.8474 107.834 32.0043 107.834 29.9173C107.834 27.8303 108.268 26.0008 109.135 24.4288C110.03 22.8297 111.249 21.5829 112.794 20.6884C114.366 19.794 116.142 19.3468 118.12 19.3468C120.614 19.3468 122.701 19.9973 124.381 21.2983C126.089 22.5993 127.186 24.361 127.674 26.5836H123.162C122.891 25.4723 122.294 24.605 121.373 23.9816C120.451 23.3582 119.367 23.0465 118.12 23.0465C117.063 23.0465 116.087 23.3175 115.193 23.8596C114.299 24.3746 113.58 25.147 113.038 26.177C112.496 27.1798 112.225 28.4266 112.225 29.9173C112.225 31.4081 112.496 32.6684 113.038 33.6983C113.58 34.7012 114.299 35.4736 115.193 36.0157C116.087 36.5578 117.063 36.8288 118.12 36.8288C119.367 36.8288 120.451 36.5171 121.373 35.8938C122.294 35.2704 122.891 34.3895 123.162 33.2511H127.674C127.214 35.4194 126.129 37.1676 124.422 38.4957C122.714 39.8238 120.614 40.4879 118.12 40.4879ZM132.348 40V10.7278H136.658V23.0871C137.335 21.9217 138.27 21.0137 139.463 20.3632C140.683 19.6856 142.024 19.3468 143.488 19.3468C145.9 19.3468 147.797 20.1057 149.18 21.6235C150.562 23.1414 151.253 25.4045 151.253 28.4131V40H146.984V28.8603C146.984 24.9573 145.426 23.0058 142.309 23.0058C140.683 23.0058 139.327 23.575 138.243 24.7134C137.186 25.8517 136.658 27.478 136.658 29.5921V40H132.348ZM163.159 40.4879C161.451 40.4879 160.042 40.2033 158.931 39.6341C157.82 39.0649 156.993 38.3196 156.451 37.398C155.909 36.4494 155.638 35.4194 155.638 34.3082C155.638 32.3567 156.397 30.8118 157.914 29.6734C159.432 28.535 161.601 27.9659 164.419 27.9659H169.705V27.6C169.705 26.0279 169.271 24.8489 168.404 24.0629C167.563 23.2769 166.466 22.8839 165.111 22.8839C163.918 22.8839 162.874 23.182 161.98 23.7783C161.113 24.3475 160.584 25.2013 160.394 26.3396H156.085C156.22 24.876 156.708 23.6292 157.549 22.5993C158.416 21.5422 159.5 20.7427 160.801 20.2006C162.129 19.6314 163.579 19.3468 165.151 19.3468C167.97 19.3468 170.152 20.0922 171.697 21.5829C173.242 23.0465 174.014 25.0522 174.014 27.6V40H170.274L169.908 36.5442C169.339 37.6555 168.512 38.5906 167.428 39.3495C166.344 40.1084 164.921 40.4879 163.159 40.4879ZM164.013 36.9915C165.178 36.9915 166.154 36.7204 166.94 36.1783C167.753 35.6092 168.377 34.8638 168.81 33.9423C169.271 33.0207 169.556 32.0043 169.664 30.8931H164.867C163.159 30.8931 161.939 31.1912 161.208 31.7875C160.503 32.3838 160.15 33.1292 160.15 34.0236C160.15 34.9451 160.489 35.6769 161.167 36.219C161.872 36.734 162.82 36.9915 164.013 36.9915ZM189.445 40V11.5409H198.674C202.008 11.5409 204.745 12.1236 206.886 13.2891C209.055 14.4545 210.654 16.1079 211.684 18.2491C212.741 20.3632 213.269 22.8839 213.269 25.8111C213.269 28.7112 212.741 31.2319 211.684 33.3731C210.654 35.4872 209.055 37.127 206.886 38.2925C204.745 39.4308 202.008 40 198.674 40H189.445ZM193.754 36.341H198.511C201.086 36.341 203.119 35.9209 204.61 35.0806C206.127 34.2404 207.212 33.0343 207.862 31.4623C208.54 29.8902 208.878 28.0065 208.878 25.8111C208.878 23.6157 208.54 21.7184 207.862 20.1193C207.212 18.5201 206.127 17.3005 204.61 16.4602C203.119 15.5929 201.086 15.1592 198.511 15.1592H193.754V36.341ZM227.301 40.4879C225.322 40.4879 223.56 40.0542 222.015 39.1869C220.498 38.2925 219.305 37.0592 218.438 35.4872C217.57 33.9152 217.137 32.0857 217.137 29.9986C217.137 27.8845 217.557 26.0279 218.397 24.4288C219.264 22.8297 220.457 21.5829 221.975 20.6884C223.52 19.794 225.309 19.3468 227.341 19.3468C229.32 19.3468 231.041 19.794 232.505 20.6884C233.968 21.5558 235.107 22.7212 235.92 24.1849C236.733 25.6485 237.139 27.2612 237.139 29.0229C237.139 29.2939 237.126 29.5921 237.099 29.9173C237.099 30.2155 237.085 30.5543 237.058 30.9337H221.365C221.5 32.8852 222.137 34.3759 223.276 35.4059C224.441 36.4087 225.783 36.9102 227.301 36.9102C228.52 36.9102 229.537 36.6391 230.35 36.097C231.19 35.5279 231.813 34.7689 232.22 33.8203H236.53C235.988 35.7176 234.903 37.3032 233.277 38.577C231.678 39.8509 229.686 40.4879 227.301 40.4879ZM227.301 22.8839C225.864 22.8839 224.59 23.3175 223.479 24.1849C222.368 25.0251 221.69 26.299 221.446 28.0065H232.83C232.749 26.4345 232.193 25.1877 231.163 24.2662C230.133 23.3446 228.846 22.8839 227.301 22.8839ZM246.468 40L238.906 19.8347H243.419L249.029 35.8938L254.64 19.8347H259.112L251.591 40H246.468Z" fill="white"/>
</svg>
