<svg width="71" height="80" viewBox="0 0 71 80" fill="none" xmlns="http://www.w3.org/2000/svg">
<path d="M35.4962 80C34.4249 80 33.3609 79.719 32.4216 79.1782L22.6351 73.3842C21.1734 72.5667 21.8867 72.2776 22.3688 72.1111C24.3177 71.4286 24.7132 71.2745 26.7935 70.0931C27.0122 69.9684 27.2983 70.0124 27.5221 70.1445L35.0405 74.6059C35.312 74.7527 35.6973 74.7527 35.949 74.6059L65.2637 57.6848C65.5352 57.5307 65.7114 57.2152 65.7114 56.8923V23.0648C65.7114 22.7272 65.5352 22.4264 65.2579 22.2576L35.9548 5.35114C35.6833 5.18971 35.3238 5.18971 35.0523 5.35114L5.75509 22.2576C5.47112 22.419 5.29061 22.7345 5.29061 23.0574V56.885C5.29061 57.2079 5.46671 57.516 5.74555 57.6701L13.7732 62.3077C18.1319 64.487 20.7955 61.9188 20.7955 59.3358V25.9485C20.7955 25.4716 21.1697 25.1047 21.6467 25.1047H25.3597C25.822 25.1047 26.2035 25.4716 26.2035 25.9485V59.3505C26.2035 65.1621 23.0336 68.5008 17.5228 68.5008C15.8278 68.5008 14.4923 68.5008 10.7647 66.6664L3.07457 62.2343C1.17406 61.1336 0 59.079 0 56.885V23.0574C0 20.856 1.17406 18.8014 3.07457 17.7154L32.4187 0.786986C34.2752 -0.262329 36.7407 -0.262329 38.5825 0.786986L67.89 17.7228C69.7831 18.8161 70.9645 20.8634 70.9645 23.0648V56.8923C70.9645 59.0863 69.7831 61.1336 67.89 62.2343L38.5825 79.1628C37.6433 79.7058 36.5793 79.9846 35.4933 79.9846" fill="#66A5FF"/>
<path d="M44.5511 56.6905C31.7245 56.6905 29.0352 50.8026 29.0352 45.8642C29.0352 45.3946 29.4138 45.0204 29.8841 45.0204H33.6705C34.0887 45.0204 34.441 45.3249 34.507 45.738C35.0794 49.5963 36.7817 51.5423 44.5379 51.5423C50.7164 51.5423 53.3433 50.1466 53.3433 46.8702C53.3433 44.9844 52.5949 43.5829 42.9969 42.6436C34.9693 41.8511 30.0089 40.0827 30.0089 33.6621C30.0089 27.7478 34.9986 24.2256 43.3565 24.2256C52.7416 24.2256 57.3938 27.4836 57.9809 34.4839C58.0029 34.7261 57.9148 34.9609 57.7534 35.137C57.5919 35.3058 57.3645 35.4085 57.1297 35.4085H53.3213C52.9251 35.4085 52.5802 35.1297 52.4995 34.7481C51.5822 30.6902 49.3662 29.3914 43.3418 29.3914C36.5983 29.3914 35.8131 31.7396 35.8131 33.5007C35.8131 35.636 36.7377 36.2597 45.8367 37.4631C54.8476 38.6592 59.1256 40.3469 59.1256 46.6795C59.1256 53.0634 53.7983 56.725 44.5085 56.725L44.5511 56.6905Z" fill="#66A5FF"/>
</svg>
