<svg width="86" height="86" viewBox="0 0 86 86" fill="none" xmlns="http://www.w3.org/2000/svg">
<g clip-path="url(#clip0_8034_35)">
<g clip-path="url(#clip1_8034_35)">
<g clip-path="url(#clip2_8034_35)">
<mask id="mask0_8034_35" style="mask-type:luminance" maskUnits="userSpaceOnUse" x="0" y="0" width="86" height="86">
<path d="M85.2155 0H0V85.2155H85.2155V0Z" fill="white"/>
</mask>
<g mask="url(#mask0_8034_35)">
<path fill-rule="evenodd" clip-rule="evenodd" d="M-1.31104 38.5861C-1.31104 39.067 -1.16838 39.3845 -1.08844 39.693C-0.567434 41.6995 0.552447 43.4214 1.88114 44.9921C3.77358 47.2305 6.0912 49.0325 8.46536 50.7271C10.5246 52.1965 12.6258 53.6332 14.6932 55.0917C15.0482 55.3421 15.3839 55.63 15.769 55.9372C15.4376 56.1151 15.1619 56.2717 14.8752 56.4161C12.1468 57.7897 9.52183 59.3298 7.1022 61.1954C5.64394 62.3199 4.23392 63.515 3.2381 65.077C1.63581 67.589 1.06863 70.2653 2.26294 73.1228C2.61166 73.9574 3.14368 74.6784 3.89418 75.2113C4.13745 75.3837 4.41035 75.5548 4.69498 75.6218C5.42411 75.7921 6.16702 75.9037 6.9051 76.0384L8.99532 76.0371C11.3068 75.8325 13.4108 75.0465 15.3121 73.7439C18.2838 71.7081 20.2858 68.9784 21.1465 65.4751C21.7723 62.9289 21.7978 60.3798 21.0604 57.8452C20.9899 57.6104 20.9084 57.3789 20.8164 57.1515C20.7269 56.9237 20.6215 56.702 20.4973 56.4182L25.236 53.7132L25.307 53.7733C25.2209 54.0532 25.1292 54.3324 25.0514 54.6149C24.4883 56.6562 24.1141 58.7331 24.2485 60.8519C24.3918 63.1094 25.0265 65.2226 26.3579 67.1088C27.4344 68.6343 29.9995 68.691 31.1435 67.16C31.5494 66.6162 31.9429 66.0476 32.2386 65.4409C33.0111 63.8572 33.7264 62.2455 34.4645 60.6446L34.5934 60.3518C34.5403 61.1097 34.4783 61.7755 34.4501 62.4417C34.4059 63.4823 34.4673 64.5167 34.8256 65.5066C35.1324 66.3535 35.654 66.9863 36.6312 67.0978C37.2997 67.1737 37.8324 66.87 38.3237 66.4849C39.085 65.8877 39.716 65.1431 40.1783 64.2964C41.4884 61.9081 42.8336 59.5343 44.0211 57.0859C45.3056 54.4376 46.429 51.7122 47.6219 49.0188L47.819 48.5412C48.1008 49.6407 48.2972 50.7175 48.6591 51.7368C49.0795 52.9196 49.5998 54.0743 50.1663 55.197C50.4343 55.7271 50.4034 56.0713 50.032 56.516C48.4771 58.3768 46.9493 60.2601 45.4201 62.1414C45.0817 62.5567 44.7447 62.9795 44.4628 63.433C44.2918 63.7194 44.1794 64.0366 44.132 64.3661C44.0846 64.6696 44.1573 64.9794 44.335 65.2309C44.5127 65.4822 44.7815 65.6555 45.0851 65.7145C45.6979 65.8455 46.3261 65.8899 46.9514 65.8465C49.0857 65.6905 51.0236 64.9469 52.7368 63.6868C54.9566 62.0546 55.6692 59.827 55.1316 57.1871C54.9863 56.4709 54.7292 55.7745 54.479 55.0841C54.3667 54.7729 54.3591 54.5546 54.5638 54.2646C56.3384 51.7491 57.8545 49.0803 59.2646 46.35C59.3203 46.2426 59.3776 46.1353 59.4754 46.0203C59.9323 48.3805 60.6202 50.6552 61.8524 52.7192C61.2238 53.3205 60.6016 53.8658 60.0385 54.4663C58.7987 55.7894 57.7236 57.2261 57.1627 58.978C56.9214 59.7333 56.7361 60.5009 56.8436 61.3074C57.0103 62.5601 58.044 63.3742 59.2852 63.089C61.9413 62.4787 64.2341 61.2364 65.9094 59.0356C67.0369 57.5538 67.1396 55.901 66.6675 54.1695C66.5379 53.6987 66.3843 53.2357 66.2188 52.696C66.8742 52.4941 67.5131 52.2519 68.1739 52.1021C71.6052 51.3249 74.9994 51.4605 78.3059 52.6904C80.2363 53.4087 81.7958 54.6107 82.7207 56.5015C83.8502 58.8132 83.2259 61.0064 81.0309 62.4677C80.8262 62.6039 80.5919 62.7113 80.4224 62.8816C80.368 62.9441 80.3275 63.0171 80.3031 63.096C80.2789 63.175 80.2713 63.2581 80.2811 63.34C80.2955 63.4241 80.5196 63.5295 80.6484 63.5282C81.37 63.5226 81.9551 63.147 82.5168 62.7612C83.924 61.7946 84.9508 60.4941 85.1721 58.7818L85.2155 58.6532L85.1624 57.538C85.141 57.4738 85.1782 57.4101 85.1734 57.3616C84.8743 54.8679 83.5325 52.934 81.5808 51.418C79.3204 49.6632 76.6513 48.9408 73.8286 48.8265C71.5392 48.7287 69.2526 49.0781 67.0989 49.8547C66.4808 50.0771 65.868 50.3405 65.2465 50.5888C65.1631 50.4391 65.0734 50.2954 64.9997 50.147C64.3615 48.8499 63.5883 47.6102 63.4173 46.123C63.2961 45.0667 63.1473 44.0118 63.4002 42.9671C63.6435 41.9622 63.9605 40.9744 64.2589 39.9831C64.4125 39.4727 64.3044 39.1868 63.8137 38.9569C63.6427 38.8723 63.4602 38.8128 63.2719 38.7804C62.066 38.6067 60.8765 38.7058 59.7084 39.0431C59.2949 39.1628 58.9944 39.3926 58.9028 39.8469C58.8503 40.1075 58.7436 40.3573 58.6691 40.6145C58.3638 41.6838 58.1474 42.7736 57.654 43.7922C56.4176 46.3474 55.0062 48.8061 53.5617 51.2469C53.4053 51.5103 53.2406 51.7689 53.0435 52.0884C52.5362 51.0349 51.9953 50.0894 51.8313 48.9812C51.6459 47.7279 51.4998 46.4767 51.814 45.2329C52.0476 44.3052 52.353 43.3947 52.6342 42.4794C52.7671 42.0443 52.7059 41.8158 52.3089 41.5866C52.1083 41.471 51.8817 41.3685 51.6555 41.3349C50.419 41.1479 49.1554 41.2505 47.9658 41.6345C47.5916 41.7549 47.3951 41.995 47.2808 42.3782C46.9445 43.5083 46.6578 44.6658 46.1857 45.7405C44.274 50.0915 42.3071 54.4198 40.3423 58.7476C39.9323 59.6512 39.452 60.5235 38.9895 61.4033C38.8724 61.6263 38.7014 61.8227 38.5554 62.0319C38.4382 61.8945 38.3927 61.8 38.3934 61.7056C38.3969 61.1495 38.33 60.5768 38.4369 60.0392C38.7649 58.4129 39.1274 56.7936 39.5244 55.1827C39.8482 53.8513 40.2252 52.5323 40.5842 51.2101C40.7048 50.7673 40.7069 50.3534 40.3865 49.9814C39.8482 49.3581 38.7235 49.2213 38.0564 49.7015L37.7614 49.8671L37.8186 49.3951C37.9593 48.3833 37.9875 47.3748 37.7077 46.3781C37.359 45.1358 36.4658 44.4209 35.1675 44.4606C34.5623 44.4791 33.927 44.5816 33.3667 44.8005C31.0104 45.7173 29.1986 47.3406 27.6563 49.2938C27.5133 49.4752 27.3362 49.6271 27.1347 49.7412C25.1409 50.8385 23.141 51.9222 21.1417 53.0099L18.9164 54.2201C18.3196 53.6551 17.7772 53.0687 17.1618 52.5714C15.2825 51.05 13.3729 49.5661 11.4804 48.0617C9.80301 46.7284 8.17797 45.3396 6.93473 43.574C6.00989 42.2605 5.41376 40.8232 5.35657 39.1991C5.2842 37.1297 5.8755 35.2387 6.9368 33.4786C8.29444 31.2265 10.1462 29.419 12.182 27.782C14.3356 26.0512 16.665 24.5817 19.0791 23.2401C22.4566 21.3637 25.9307 19.7026 29.6556 18.606C33.4748 17.4812 37.3501 16.8375 41.3472 17.2863C42.9184 17.4629 44.4442 17.8199 45.8453 18.5828C46.9183 19.1663 47.7984 19.9305 48.2077 21.1249C48.6115 22.3001 48.5992 23.4912 48.3194 24.685C47.7508 27.1026 46.4172 29.0955 44.7392 30.8762C41.9867 33.7953 38.6291 35.7826 34.849 37.0955C32.6757 37.8513 30.4143 38.3301 28.1194 38.5204C26.2387 38.6771 24.3973 38.5115 22.6166 37.8623C21.4373 37.432 20.4105 36.7739 19.5849 35.8188C19.4375 35.6479 19.2486 35.4625 18.9737 35.6226C18.7041 35.7799 18.6567 36.0344 18.7469 36.2922C18.8979 36.7205 19.037 37.1665 19.272 37.5496C19.8627 38.5109 20.7241 39.2079 21.6724 39.8059C23.4938 40.9559 25.5296 41.3424 27.6405 41.432C30.8437 41.5696 33.969 41.0947 37.0502 40.2416C41.4492 39.024 45.2739 36.8731 48.3414 33.4799C50.8954 30.6545 52.7197 27.4659 53.1103 23.6157C53.3012 21.7365 53.098 19.8955 52.2118 18.1812C51.2503 16.3238 49.7218 14.9426 47.8941 13.9909C45.2326 12.6056 42.3602 11.7991 39.3955 11.7991H36.4251C32.8347 11.7991 29.3634 12.8205 25.9893 14.0388C23.4353 14.9617 20.9309 16.0508 18.4995 17.2563C13.2047 19.8825 8.27377 23.0492 4.22359 27.4036C2.20574 29.5729 0.497315 31.9667 -0.485424 34.7852C-0.782034 35.6266 -1.03755 36.4819 -1.25108 37.3479L-1.31104 38.5861ZM17.9344 61.9847C17.7049 65.0352 16.3121 67.5082 14.0359 69.5113C12.7554 70.6374 11.2868 71.4392 9.57628 71.721C8.95604 71.8229 8.32132 71.8475 7.71968 71.5924C6.86168 71.2285 6.66941 70.4726 6.65288 69.6673C6.62738 68.3839 7.08015 67.2236 7.70108 66.1195C8.51153 64.6801 9.69963 63.5828 10.9684 62.558C12.9669 60.9428 15.135 59.576 17.3555 58.2858L17.5229 58.2174C17.8661 59.4761 18.0295 60.7192 17.9344 61.9847ZM35.2722 48.7274C35.1102 49.7015 34.9076 50.6763 34.6209 51.6205C33.6299 54.8885 32.3571 58.0552 30.9808 61.1796C30.7266 61.7576 30.3565 62.2851 30.0346 62.8331C29.9798 62.9174 29.9143 62.9941 29.8396 63.0616C29.4413 63.4521 29.0636 63.4317 28.8623 62.9206C28.6281 62.3267 28.484 61.6913 28.36 61.0625C28.2766 60.6405 28.2965 60.1971 28.2704 59.7648C28.2973 56.6905 29.2421 53.8966 30.8451 51.2955C31.506 50.2229 32.2255 49.2008 33.3246 48.5221C33.6666 48.311 34.0366 48.1485 34.4239 48.0391C35.0096 47.8756 35.3694 48.1445 35.2722 48.7274ZM47.1009 63.6874L51.3523 58.7599C51.5294 60.5898 48.3958 64.243 47.1009 63.6874ZM60.6794 60.3716C60.379 60.5426 60.0516 60.6658 59.7435 60.8238C59.4616 60.9688 59.3686 60.8225 59.3603 60.5817C59.3562 60.4149 59.3777 60.2485 59.4244 60.0885C59.9985 58.0784 61.055 56.3627 62.6269 54.9671L62.7372 54.911C63.485 56.9873 62.6208 59.2675 60.6794 60.3716Z" fill="#8257E6"/>
</g>
</g>
</g>
</g>
<defs>
<clipPath id="clip0_8034_35">
<rect width="85.2155" height="85.1208" fill="white"/>
</clipPath>
<clipPath id="clip1_8034_35">
<rect width="85.2155" height="85.2155" fill="white"/>
</clipPath>
<clipPath id="clip2_8034_35">
<rect width="85.2155" height="85.2155" fill="white"/>
</clipPath>
</defs>
</svg>
