<svg width="80" height="80" viewBox="0 0 80 80" fill="none" xmlns="http://www.w3.org/2000/svg">
<g clip-path="url(#clip0_8034_54)">
<g clip-path="url(#clip1_8034_54)">
<mask id="mask0_8034_54" style="mask-type:luminance" maskUnits="userSpaceOnUse" x="0" y="0" width="85" height="85">
<path d="M84.0323 0.985596H0.10791V84.91H84.0323V0.985596Z" fill="white"/>
</mask>
<g mask="url(#mask0_8034_54)">
<path d="M42.0725 17.7717C30.8825 17.7717 23.891 23.3644 21.0915 34.5547C25.2864 28.9612 30.1834 26.8637 35.7769 28.2623C38.9706 29.0583 41.2529 31.3741 43.7805 33.9403C47.8942 38.1149 52.6555 42.9477 63.0536 42.9477C74.2431 42.9477 81.235 37.3542 84.0347 26.1616C79.8391 31.7583 74.9427 33.8558 69.3486 32.4572C66.1556 31.6606 63.8758 29.3454 61.3449 26.7791C57.2339 22.6046 52.4739 17.7717 42.0725 17.7717ZM21.0915 42.9477C9.90196 42.9477 2.91002 48.5411 0.110352 59.7339C4.30525 54.1372 9.20172 52.0397 14.7958 53.4383C17.9895 54.2349 20.2718 56.5501 22.7994 59.1162C26.9131 63.2909 31.6744 68.1238 42.0725 68.1238C53.262 68.1238 60.2539 62.5309 63.0536 51.3408C58.8581 56.9342 53.9617 59.0317 48.3675 57.6332C45.1745 56.8372 42.8947 54.5214 40.3638 51.9551C36.2528 47.7806 31.4928 42.9477 21.0915 42.9477Z" fill="#8257E6"/>
</g>
</g>
</g>
<defs>
<clipPath id="clip0_8034_54">
<rect width="80" height="80" fill="white"/>
</clipPath>
<clipPath id="clip1_8034_54">
<rect width="85.2155" height="85.2155" fill="white"/>
</clipPath>
</defs>
</svg>
