<svg width="80" height="80" viewBox="0 0 80 80" fill="none" xmlns="http://www.w3.org/2000/svg">
<path fill-rule="evenodd" clip-rule="evenodd" d="M0 0V80H80V0H0ZM60.7882 38.8569V38.858C61.5554 38.8604 62.4272 38.8999 63.0829 38.971C65.7533 39.2599 67.8329 40.412 69.6022 42.582C70.4832 43.6629 70.7846 44.1359 70.7204 44.3382C70.679 44.4688 70.0745 44.9018 68.1526 46.1776C66.2646 47.431 65.6563 47.8064 65.5151 47.8064C65.3719 47.8064 65.0736 47.4994 64.6435 46.9099C63.8152 45.7747 62.9695 45.2566 61.6621 45.0839C60.2562 44.8977 58.9951 45.3408 58.3774 46.2385C57.8495 47.0054 57.7698 48.2397 58.1894 49.1364C58.6755 50.1751 59.5555 50.7493 62.9278 52.2281C66.8172 53.9335 68.7882 55.1009 70.2237 56.5495C71.7695 58.1096 72.5527 59.9109 72.7933 62.4587C72.9108 63.7005 72.7672 65.1724 72.4119 66.3691C71.5404 69.3026 69.1885 71.4507 65.7413 72.4617C64.7884 72.741 63.9017 72.9079 63.0246 72.9721C61.6857 73.0707 59.7691 73.0164 58.6156 72.8484C55.6972 72.4234 52.4027 70.7251 50.7599 68.7994C49.9535 67.8542 48.924 66.2986 48.924 66.0249C48.924 65.8929 48.9894 65.8179 49.2487 65.6531C50.0176 65.1646 54.424 62.6456 54.5095 62.6456C54.5612 62.6456 54.7913 62.9169 55.0207 63.2484C55.5406 63.9989 56.8188 65.289 57.4686 65.7194C57.9995 66.0709 58.6782 66.3532 59.4841 66.5569C59.9456 66.672 60.19 66.6925 61.1971 66.6925C62.226 66.6921 62.4371 66.6748 62.8975 66.5512C64.115 66.2235 65.0655 65.5454 65.4682 64.7172C65.6448 64.3592 65.6482 64.3145 65.6482 63.4465V62.5465L65.4319 62.1172C64.9077 61.0767 63.7782 60.3628 60.2074 58.816C58.5671 58.1055 56.5581 57.1037 55.7738 56.6052C53.984 55.4678 52.7434 54.1674 51.9293 52.5756C51.1195 50.9927 50.9987 50.4035 50.9968 48.0233C50.9948 46.1601 50.9917 46.1829 51.3775 44.9937C51.7275 43.9145 52.4439 42.709 53.2348 41.8684C54.8135 40.1903 57.1197 39.1119 59.589 38.8974C59.9048 38.8675 60.3278 38.8558 60.788 38.8572L60.7882 38.8569ZM39.5412 39.2249H39.5419C44.2974 39.2273 47.0235 39.2438 47.0672 39.2712C47.1497 39.3223 47.1599 39.7361 47.1599 42.3775V45.4248L42.4146 45.442L37.6693 45.4592V58.9324C37.6693 66.3428 37.6543 72.4496 37.6337 72.5035C37.6002 72.5942 37.2352 72.6012 34.1476 72.6012H30.699L30.6634 72.4618C30.6404 72.3853 30.6236 66.2783 30.6232 58.8906L30.622 45.4585L25.8767 45.4416L21.1314 45.4244V42.4132C21.1314 40.025 21.1479 39.3854 21.2115 39.3218C21.2768 39.2545 23.6985 39.2372 34.1334 39.2269C36.1454 39.2248 37.9559 39.2239 39.5412 39.2249Z" fill="#8257E6"/>
</svg>
