<svg width="80" height="80" viewBox="0 0 80 80" fill="none" xmlns="http://www.w3.org/2000/svg">
<path d="M9.64063 26.4687L25.5 69.9062C14.4062 64.5312 6.76562 53.1562 6.76562 40C6.76562 35.1719 7.79688 30.6094 9.64063 26.4687ZM62.4375 38.3281C62.4375 34.2188 60.9688 31.375 59.7031 29.1563C58.0156 26.4219 56.4375 24.0937 56.4375 21.3594C56.4375 18.2969 58.75 15.4531 62.0156 15.4531C62.1562 15.4531 62.2969 15.4687 62.4531 15.4844C56.5313 10.0625 48.6563 6.75 40 6.75C28.3906 6.75 18.1719 12.7031 12.2187 21.7344C13 21.7656 13.7344 21.7812 14.3594 21.7812C17.8281 21.7812 23.2188 21.3594 23.2188 21.3594C25.0156 21.25 25.2187 23.8906 23.4375 24.0937C23.4375 24.0937 21.6406 24.2969 19.6406 24.4062L31.75 60.4063L39.0313 38.5938L33.8594 24.4062C32.0625 24.2969 30.375 24.0937 30.375 24.0937C28.5781 23.9844 28.7969 21.25 30.5781 21.3594C30.5781 21.3594 36.0625 21.7812 39.3281 21.7812C42.7969 21.7812 48.1875 21.3594 48.1875 21.3594C49.9844 21.25 50.1875 23.8906 48.4062 24.0937C48.4062 24.0937 46.6094 24.2969 44.6094 24.4062L56.625 60.1406L59.9375 49.0625C61.3438 44.4688 62.4375 41.1719 62.4375 38.3281ZM40.5781 42.9063L30.6094 71.8906C33.5937 72.7656 36.7344 73.25 40 73.25C43.875 73.25 47.5781 72.5781 51.0313 71.3594C50.9375 71.2188 50.8594 71.0625 50.7969 70.9062L40.5781 42.9063ZM69.1719 24.0469C69.3125 25.1094 69.3906 26.2344 69.3906 27.4688C69.3906 30.8438 68.7656 34.625 66.8594 39.375L56.7031 68.7344C66.5937 62.9687 73.2344 52.2656 73.2344 40C73.2344 34.2188 71.7656 28.7812 69.1719 24.0469ZM78.75 40C78.75 61.375 61.3594 78.75 40 78.75C18.625 78.75 1.25 61.3594 1.25 40C1.25 18.625 18.625 1.25 40 1.25C61.3594 1.25 78.75 18.625 78.75 40ZM76.9688 40C76.9688 19.6094 60.375 3.03125 40 3.03125C19.6094 3.03125 3.03125 19.6094 3.03125 40C3.03125 60.3906 19.625 76.9688 40 76.9688C60.3906 76.9688 76.9688 60.3906 76.9688 40Z" fill="#66A5FF"/>
</svg>
