<svg width="80" height="80" viewBox="0 0 80 80" fill="none" xmlns="http://www.w3.org/2000/svg">
<g clip-path="url(#clip0_8034_12)">
<g clip-path="url(#clip1_8034_12)">
<g clip-path="url(#clip2_8034_12)">
<path d="M68.3898 71.147L74.6618 1.224H4.89551L4.97748 2.13136L11.1577 71.1568L11.2102 71.7312L39.5148 79.5581H39.9607L68.3307 71.7247L68.3832 71.1503L68.3898 71.147ZM39.8394 16.4958H60.1111L59.5014 23.5459L39.5017 32.3977L39.8361 33.9905H58.603L56.4424 58.6364L39.7672 63.2385L23.0985 58.6429L22.0493 46.8405H28.9116L29.4624 52.8233L29.5148 53.4043L39.6295 56.0808H40.0656L50.0687 53.3129L50.1179 52.7352L51.0621 41.6836L51.1375 40.7827H21.4757L20.8527 33.6902L41.5376 24.8744L41.2099 23.275H19.9642L19.3576 16.4861H39.8164L39.8394 16.4958Z" fill="#66A5FF"/>
</g>
</g>
</g>
<defs>
<clipPath id="clip0_8034_12">
<rect width="80" height="80" fill="white"/>
</clipPath>
<clipPath id="clip1_8034_12">
<rect width="79.5581" height="79.5581" fill="white"/>
</clipPath>
<clipPath id="clip2_8034_12">
<rect width="79.5581" height="79.5581" fill="white"/>
</clipPath>
</defs>
</svg>
