<svg width="80" height="80" viewBox="0 0 80 80" fill="none" xmlns="http://www.w3.org/2000/svg">
<g clip-path="url(#clip0_8034_17)">
<g clip-path="url(#clip1_8034_17)">
<g clip-path="url(#clip2_8034_17)">
<path fill-rule="evenodd" clip-rule="evenodd" d="M0 0H79.5581V79.5581H0V0ZM60.8188 66.6962C57.1293 66.6962 55.0443 64.7735 53.4431 62.1547L47.3669 65.6851C49.5614 70.021 54.0465 73.3293 60.9912 73.3293C68.0918 73.3293 73.3791 69.6432 73.3791 62.9106C73.3791 56.6686 69.7923 53.894 63.441 51.1658L61.5713 50.3669C58.3625 48.9746 56.9735 48.0696 56.9735 45.8254C56.9735 44.0121 58.3658 42.6232 60.5536 42.6232C62.6984 42.6232 64.0807 43.5282 65.3636 45.8254L71.1846 42.0895C68.7216 37.7569 65.3073 36.1028 60.5536 36.1028C53.8773 36.1028 49.6045 40.3724 49.6045 45.9813C49.6045 52.0641 53.1846 54.9448 58.5813 57.242L60.4509 58.0442C63.8619 59.536 65.894 60.4442 65.894 63.0067C65.894 65.1481 63.915 66.6962 60.8188 66.6962ZM31.8465 66.6464C29.2774 66.6464 28.2066 64.8895 27.0332 62.8012L20.947 66.4873C22.7105 70.2199 26.1779 73.3161 32.1613 73.3161C38.7879 73.3161 43.326 69.7923 43.326 62.052V36.5271H35.8508V61.9525C35.8508 65.6884 34.2994 66.6464 31.8431 66.6464H31.8465Z" fill="#66A5FF"/>
</g>
</g>
</g>
<defs>
<clipPath id="clip0_8034_17">
<rect width="80" height="80" fill="white"/>
</clipPath>
<clipPath id="clip1_8034_17">
<rect width="79.5581" height="79.5581" fill="white"/>
</clipPath>
<clipPath id="clip2_8034_17">
<rect width="79.5581" height="79.5581" fill="white"/>
</clipPath>
</defs>
</svg>
