<svg width="81" height="81" viewBox="0 0 81 81" fill="none" xmlns="http://www.w3.org/2000/svg">
<g clip-path="url(#clip0_8034_54)">
<g clip-path="url(#clip1_8034_54)">
<g clip-path="url(#clip2_8034_54)">
<mask id="mask0_8034_54" style="mask-type:luminance" maskUnits="userSpaceOnUse" x="0" y="1" width="85" height="85">
<path d="M84.0616 1.35132H0.137207V85.2757H84.0616V1.35132Z" fill="white"/>
</mask>
<g mask="url(#mask0_8034_54)">
<path d="M42.1018 18.1375C30.9118 18.1375 23.9203 23.7302 21.1208 34.9204C25.3157 29.3269 30.2127 27.2294 35.8062 28.628C38.9999 29.424 41.2822 31.7398 43.8098 34.3061C47.9235 38.4806 52.6848 43.3135 63.0829 43.3135C74.2724 43.3135 81.2643 37.72 84.064 26.5273C79.8684 32.124 74.972 34.2215 69.3779 32.8229C66.1849 32.0263 63.9051 29.7111 61.3742 27.1449C57.2632 22.9703 52.5032 18.1375 42.1018 18.1375ZM21.1208 43.3135C9.93126 43.3135 2.93932 48.9068 0.139648 60.0996C4.33455 54.5029 9.23102 52.4054 14.8251 53.804C18.0188 54.6006 20.3011 56.9158 22.8287 59.4819C26.9424 63.6566 31.7037 68.4895 42.1018 68.4895C53.2913 68.4895 60.2832 62.8966 63.0829 51.7065C58.8874 57.2999 53.991 59.3974 48.3968 57.9989C45.2038 57.2029 42.924 54.8871 40.3931 52.3209C36.2821 48.1463 31.5221 43.3135 21.1208 43.3135Z" fill="#66A5FF"/>
</g>
</g>
</g>
</g>
<defs>
<clipPath id="clip0_8034_54">
<rect width="80" height="80" fill="white" transform="translate(0.0292969 0.365723)"/>
</clipPath>
<clipPath id="clip1_8034_54">
<rect width="85.2155" height="85.2155" fill="white" transform="translate(0.0292969 0.365723)"/>
</clipPath>
<clipPath id="clip2_8034_54">
<rect width="85.2155" height="85.2155" fill="white" transform="translate(0.0292969 0.365723)"/>
</clipPath>
</defs>
</svg>
